<svg width="130" height="90" viewBox="0 0 130 90" fill="none" xmlns="http://www.w3.org/2000/svg">
<path d="M45.9999 1.8208H63.7999C66.0999 1.8208 67.8999 3.6208 67.8999 5.9208V6.6208H52.1999C50.6999 6.6208 49.2999 7.2208 48.2999 8.2208C47.1999 9.2208 46.6999 10.6208 46.6999 12.1208V27.8208H45.9999C43.6999 27.8208 41.8999 26.0208 41.8999 23.7208V5.9208C41.8999 3.6208 43.6999 1.8208 45.9999 1.8208Z" fill="#0092C9"/>
<path d="M52.1999 7.8208H70.5999C72.9999 7.8208 74.8999 9.7208 74.8999 12.1208V12.6208H58.6999C56.9999 12.5208 55.2999 13.2208 54.1999 14.4208C53.0999 15.8208 52.4999 17.6208 52.5999 19.3208V34.9208H52.1999C49.7999 34.9208 47.8999 32.9208 47.8999 30.6208V12.1208C47.8999 9.7208 49.7999 7.8208 52.1999 7.8208Z" fill="#479B42"/>
<path fill-rule="evenodd" clip-rule="evenodd" d="M58.6999 13.8208H83.1999C85.8999 13.8208 88.0999 16.0208 88.0999 18.7208V43.2208C88.0999 45.9208 85.8999 48.1208 83.1999 48.1208H58.6999C55.9999 48.1208 53.7999 45.9208 53.7999 43.2208V19.3208C53.7999 15.9208 55.4999 13.8208 58.6999 13.8208ZM65.7999 36.2208C65.3999 35.9208 64.3999 33.0208 62.8999 32.3208C62.1999 31.9208 60.0999 33.7208 59.7999 34.7208C59.6999 35.2208 60.1999 35.6208 60.4999 36.0208C61.4332 37.1541 62.1999 38.3875 62.7999 39.7208C63.3999 40.8208 63.4999 41.3208 65.0999 41.5208C66.8999 41.4208 66.9999 41.6208 67.7999 40.4208C68.3999 39.6208 68.9332 38.7875 69.3999 37.9208C73.4999 30.8208 76.9999 26.7208 82.8999 21.0208L83.2999 19.5208C76.8999 23.6208 71.1999 28.9208 66.7999 35.1208C66.4999 35.5208 66.2999 36.2208 65.7999 36.2208Z" fill="#0092C9"/>
<path fill-rule="evenodd" clip-rule="evenodd" d="M6.94995 69.5539C7.41662 69.1539 7.91662 68.8206 8.44995 68.5539C9.14995 68.2539 9.94995 68.0539 10.75 68.1539C11.2166 68.0873 11.7166 68.1206 12.25 68.2539C12.65 68.3873 13.05 68.5539 13.45 68.7539C13.7166 68.8873 13.9833 69.0873 14.25 69.3539C14.45 69.4873 14.6166 69.6206 14.75 69.7539C15.2166 69.2873 15.75 68.9206 16.35 68.6539C17.15 68.2539 18.05 68.0539 18.95 68.1539C20.35 68.0539 21.75 68.4539 22.75 69.3539C23.6833 70.2206 24.1499 71.6206 24.1499 73.5539V82.2539H20.25V73.4539C20.25 71.9873 20.0499 70.9873 19.6499 70.4539C19.2499 69.8539 18.65 69.5539 17.95 69.5539C17.4166 69.5539 16.9166 69.6539 16.45 69.8539C16.05 70.0539 15.6833 70.3206 15.35 70.6539C15.4833 70.8539 15.5833 71.0873 15.6499 71.3539C15.7166 71.6206 15.75 71.8873 15.75 72.1539C15.8166 72.6206 15.85 73.0539 15.85 73.4539V82.2539H12.0499V73.4539C12.0499 71.9873 11.8166 70.9873 11.35 70.4539C10.95 69.8539 10.3499 69.5539 9.64995 69.5539C9.18328 69.5539 8.74995 69.6873 8.34995 69.9539C8.01662 70.1539 7.71662 70.4206 7.44995 70.7539C7.44995 70.8206 7.44995 70.9539 7.44995 71.1539C7.51662 71.2873 7.54995 71.4539 7.54995 71.6539C7.61662 71.8539 7.64995 72.0539 7.64995 72.2539V82.2539H3.74995V72.2539C3.74995 71.8539 3.74995 71.4539 3.74995 71.0539C3.68328 70.7206 3.58328 70.3873 3.44995 70.0539C3.31662 69.7873 3.11662 69.5873 2.84995 69.4539C2.51662 69.3206 2.14995 69.2539 1.74995 69.2539H1.44995V68.4539H4.34995C4.88329 68.3873 5.41662 68.4539 5.94995 68.6539C6.34995 68.8539 6.64995 69.1539 6.84995 69.5539H6.94995ZM34.0499 84.1539C33.8499 84.8873 33.5499 85.5539 33.1499 86.1539C32.8166 86.6206 32.4499 87.0206 32.0499 87.3539C31.7166 87.6206 31.3166 87.8206 30.85 87.9539C30.3833 88.0873 29.9166 88.1539 29.45 88.1539H28.25V87.1539C28.7166 87.1539 29.1833 87.0873 29.6499 86.9539C30.0499 86.8873 30.4166 86.7539 30.75 86.5539C31.15 86.2873 31.4833 85.9873 31.75 85.6539C32.0833 85.2539 32.3166 84.7873 32.45 84.2539L33.0499 82.6539L27.75 71.0539C27.15 69.6539 26.25 68.8539 25.0499 68.6539V68.1539H27.6499C28.4499 68.0539 29.25 68.3539 29.95 68.7539C30.65 69.1539 31.15 69.7539 31.45 70.4539L34.85 77.8539L38.45 68.3539H40.0499L34.0499 84.1539ZM44.6499 80.8539C44.6499 81.3539 44.4499 81.8539 44.1499 82.1539C43.4499 82.8539 42.25 82.8539 41.5499 82.1539C40.8499 81.4539 40.8499 80.3539 41.5499 79.5539C42.25 78.9539 43.4499 78.9539 44.1499 79.5539C44.4499 79.9539 44.6499 80.3539 44.6499 80.8539ZM47.45 72.7539C47.45 71.9539 47.5499 71.2539 47.95 70.5539C48.25 69.9539 48.75 69.4539 49.25 69.1539C49.9166 68.7539 50.6166 68.4873 51.35 68.3539C52.15 68.1539 52.95 68.0873 53.75 68.1539H59.95V68.9539L57.35 69.2539C58.15 69.5539 58.85 70.0539 59.35 70.6539C59.85 71.2539 60.1499 71.9539 60.1499 72.7539C60.1499 73.4539 59.9499 74.1539 59.6499 74.8539C59.3499 75.4539 58.95 75.8539 58.35 76.2539C57.75 76.6539 57.0833 76.9206 56.35 77.0539C55.55 77.1873 54.6833 77.2539 53.75 77.2539C53.0833 77.2539 52.3833 77.2873 51.6499 77.3539C51.1166 77.4873 50.85 77.7539 50.85 78.1539C50.85 78.4873 51.1166 78.6873 51.6499 78.7539C52.3833 78.8873 53.0833 78.9539 53.75 78.9539C54.75 78.9539 55.7166 79.0539 56.6499 79.2539C57.4499 79.4539 58.1833 79.7539 58.85 80.1539C59.5166 80.4873 60.0499 80.9539 60.45 81.5539C60.85 82.1539 61.0499 82.8539 61.0499 83.5539C61.0499 85.0539 60.25 86.4539 58.95 87.1539C58.2166 87.5539 57.4499 87.8206 56.6499 87.9539C54.7499 88.2539 52.85 88.2539 50.95 87.9539C50.15 87.8206 49.3833 87.5539 48.6499 87.1539C47.2499 86.4539 46.45 85.0539 46.5499 83.5539C46.5499 83.0873 46.6833 82.6206 46.95 82.1539C47.15 81.7539 47.45 81.3873 47.85 81.0539C48.25 80.7206 48.6833 80.4539 49.1499 80.2539C49.6166 80.0539 50.0833 79.8873 50.5499 79.7539C50.2166 79.6206 49.9166 79.4206 49.6499 79.1539C49.3499 78.9539 49.15 78.5539 49.25 78.1539C49.25 77.4539 49.75 76.8539 50.45 76.6539C49.5499 76.3539 48.85 75.8539 48.35 75.1539C47.75 74.4539 47.45 73.5539 47.45 72.7539ZM52.6499 80.1539C52.0499 80.3539 51.4499 80.8539 51.1499 81.3539C50.6499 82.0539 50.5499 82.8539 50.5499 83.5539C50.45 84.4539 50.75 85.3539 51.45 86.0539C52.85 87.0539 54.7499 87.0539 56.1499 86.0539C56.7499 85.3539 57.1499 84.4539 57.0499 83.5539C57.0499 82.7539 56.75 81.9539 56.25 81.4539C55.65 80.8539 54.8499 80.4539 54.0499 80.2539L52.6499 80.1539ZM56.1499 72.7539C56.2499 71.8539 55.95 70.9539 55.45 70.1539C55.0499 69.6539 54.45 69.2539 53.75 69.2539C53.15 69.2539 52.45 69.5539 52.0499 70.0539C51.5499 70.8539 51.35 71.7539 51.45 72.7539C51.35 73.6539 51.5499 74.5539 52.0499 75.2539C52.5499 75.7539 53.15 76.0539 53.75 76.0539C54.45 76.0539 55.0499 75.7539 55.45 75.2539C55.95 74.5539 56.2499 73.6539 56.1499 72.7539ZM62.6499 75.3539C62.6499 74.3539 62.8166 73.3873 63.1499 72.4539C63.4166 71.6539 63.8833 70.9206 64.5499 70.2539C65.1499 69.5873 65.8833 69.0539 66.75 68.6539C68.65 67.9539 70.7499 67.9539 72.6499 68.6539C73.5166 69.0539 74.2499 69.5873 74.8499 70.2539C75.5166 70.9206 75.9833 71.6539 76.25 72.4539C76.95 74.3539 76.95 76.3539 76.25 78.1539C75.9833 79.0206 75.5166 79.7873 74.8499 80.4539C74.2499 81.1206 73.5166 81.6206 72.6499 81.9539C70.7499 82.7539 68.65 82.7539 66.75 81.9539C65.8833 81.6206 65.1499 81.1206 64.5499 80.4539C63.8833 79.7873 63.4166 79.0206 63.1499 78.1539C62.8166 77.2206 62.6499 76.2873 62.6499 75.3539ZM72.75 75.3539C72.8166 74.5539 72.7833 73.7539 72.6499 72.9539C72.5166 72.3539 72.3166 71.7539 72.05 71.1539C71.7833 70.6206 71.45 70.1873 71.0499 69.8539C70.2499 69.2539 69.15 69.2539 68.35 69.8539C67.95 70.1873 67.6166 70.6206 67.35 71.1539C67.0833 71.7539 66.8833 72.3539 66.75 72.9539C66.55 74.5539 66.55 76.1206 66.75 77.6539C66.8833 78.3206 67.0833 78.9539 67.35 79.5539C67.6166 80.0206 67.95 80.4206 68.35 80.7539C69.15 81.3539 70.2499 81.3539 71.0499 80.7539C71.45 80.4206 71.7833 80.0206 72.05 79.5539C72.3166 78.9539 72.5166 78.3206 72.6499 77.6539C72.7833 76.9206 72.8166 76.1539 72.75 75.3539ZM79.75 71.7539C79.4166 70.9539 78.9833 70.1873 78.45 69.4539C78.1499 69.0539 77.6499 68.8539 77.1499 68.7539V68.1539C77.2166 68.1539 77.3833 68.1539 77.6499 68.1539C77.9166 68.1539 78.1166 68.1539 78.25 68.1539C78.7833 68.1539 79.35 68.1873 79.95 68.2539C80.4166 68.3873 80.9166 68.5539 81.45 68.7539C81.9166 69.0873 82.35 69.4873 82.75 69.9539C83.2166 70.4873 83.5833 71.0873 83.8499 71.7539L86.45 77.4539L90.45 68.4539H92.05L85.75 82.5539H84.75L79.75 71.7539ZM96.1499 80.8539C96.2499 81.3539 96.05 81.8539 95.75 82.1539C94.95 82.8539 93.85 82.8539 93.05 82.1539C92.45 81.4539 92.45 80.3539 93.05 79.5539C93.85 78.9539 94.95 78.9539 95.75 79.5539C96.05 79.9539 96.2499 80.3539 96.1499 80.8539ZM99.75 72.2539C99.8166 71.5206 99.6833 70.7873 99.3499 70.0539C99.1499 69.5206 98.6166 69.2539 97.75 69.2539H97.45V68.4539H100.95C101.417 68.3873 101.85 68.4206 102.25 68.5539C102.583 68.6873 102.85 68.9206 103.05 69.2539C103.25 69.5873 103.383 69.9873 103.45 70.4539C103.583 71.0539 103.617 71.6539 103.55 72.2539V77.1539C103.55 78.6873 103.783 79.7539 104.25 80.3539C104.65 80.9539 105.35 81.2539 106.15 81.2539C106.55 81.2539 106.917 81.1539 107.25 80.9539C107.583 80.7539 107.85 80.5206 108.05 80.2539C108.317 79.9873 108.55 79.6873 108.75 79.3539V68.4539H112.55V82.2539H110.05L109.05 80.9539H108.95C108.617 81.2206 108.283 81.4873 107.95 81.7539C107.55 82.0206 107.15 82.2206 106.75 82.3539C106.283 82.4873 105.783 82.5539 105.25 82.5539C103.383 82.5539 102.017 82.1206 101.15 81.2539C100.217 80.3873 99.75 79.0206 99.75 77.1539V72.2539ZM128.55 68.4539L120.15 80.9539H127.85V82.2539H115.55V81.3539L123.25 69.7539H119.75C118.85 69.6539 117.95 69.8539 117.15 70.4539C116.55 70.9539 116.35 71.7539 116.35 72.5539H115.55V70.7539C115.55 70.4873 115.583 70.1873 115.65 69.8539C115.717 69.5873 115.817 69.3539 115.95 69.1539C116.217 68.8873 116.483 68.7206 116.75 68.6539C117.15 68.4539 117.583 68.3873 118.05 68.4539H128.55Z" fill="#0092C9"/>
</svg>
