<svg width="100" height="100" viewBox="0 0 100 100" fill="none" xmlns="http://www.w3.org/2000/svg">
<path d="M51.0164 16.6667C53.2418 16.6789 58.8097 16.7327 64.7256 16.9697L66.8231 17.0612C72.7793 17.3432 78.7306 17.8249 81.6823 18.6479C85.6193 19.7539 88.7139 22.9812 89.7598 27.0722C91.4252 33.5684 91.6335 46.2475 91.6593 49.3158L91.6631 49.9517V49.9963C91.6631 49.9963 91.6631 50.0117 91.6631 50.0413L91.6593 50.6771C91.6335 53.7454 91.4252 66.4246 89.7598 72.9208C88.6993 77.0267 85.6048 80.2542 81.6823 81.345C78.7306 82.1679 72.7793 82.6496 66.8231 82.9317L64.7256 83.0229C58.8097 83.26 53.2418 83.3138 51.0164 83.3263L50.0397 83.3296H49.9964C49.9964 83.3296 49.9818 83.3296 49.9531 83.3296L48.9772 83.3263C44.2673 83.3004 24.574 83.0875 18.3106 81.345C14.3735 80.2388 11.279 77.0117 10.233 72.9208C8.56766 66.4246 8.3595 53.7454 8.3335 50.6771V49.3158C8.3595 46.2475 8.56766 33.5684 10.233 27.0722C11.2935 22.9661 14.388 19.7388 18.3106 18.6479C24.574 16.9051 44.2673 16.6926 48.9772 16.6667H51.0164ZM41.6631 35.4131V64.5796L66.6631 49.9963L41.6631 35.4131Z" fill="#EC1C24"/>
</svg>
